<?xml version="1.0" standalone="no"?><!DOCTYPE svg PUBLIC "-//W3C//DTD SVG 1.1//EN" "http://www.w3.org/Graphics/SVG/1.1/DTD/svg11.dtd"><svg class="icon" width="200px" height="200.00px" viewBox="0 0 1024 1024" version="1.1" xmlns="http://www.w3.org/2000/svg"><path fill="#ffffff" d="M128 213.344l768 0q17.664 0 30.176 12.512t12.512 30.176-12.512 30.176-30.176 12.512l-768 0q-17.664 0-30.176-12.512t-12.512-30.176 12.512-30.176 30.176-12.512zM128 725.344l768 0q17.664 0 30.176 12.512t12.512 30.176-12.512 30.176-30.176 12.512l-768 0q-17.664 0-30.176-12.512t-12.512-30.176 12.512-30.176 30.176-12.512zM128 469.344l768 0q17.664 0 30.176 12.512t12.512 30.176-12.512 30.176-30.176 12.512l-768 0q-17.664 0-30.176-12.512t-12.512-30.176 12.512-30.176 30.176-12.512z" /></svg>